<svg width="223" height="115" viewBox="0 0 223 115" fill="none" xmlns="http://www.w3.org/2000/svg">
<path d="M101.148 64.4688C101.148 63.0781 101.414 61.7734 101.945 60.5547C102.477 59.3359 103.195 58.2734 104.102 57.3672C105.023 56.4453 106.094 55.7188 107.312 55.1875C108.531 54.6562 109.836 54.3906 111.227 54.3906H126.648V61.1172H111.227C110.758 61.1172 110.32 61.2031 109.914 61.375C109.508 61.5469 109.148 61.7891 108.836 62.1016C108.539 62.3984 108.305 62.75 108.133 63.1562C107.961 63.5625 107.875 64 107.875 64.4688C107.875 64.9375 107.961 65.3828 108.133 65.8047C108.305 66.2109 108.539 66.5703 108.836 66.8828C109.148 67.1797 109.508 67.4141 109.914 67.5859C110.32 67.7578 110.758 67.8438 111.227 67.8438H117.953C119.344 67.8438 120.648 68.1094 121.867 68.6406C123.102 69.1562 124.172 69.875 125.078 70.7969C126 71.7031 126.719 72.7734 127.234 74.0078C127.766 75.2266 128.031 76.5312 128.031 77.9219C128.031 79.3125 127.766 80.6172 127.234 81.8359C126.719 83.0547 126 84.125 125.078 85.0469C124.172 85.9531 123.102 86.6719 121.867 87.2031C120.648 87.7344 119.344 88 117.953 88H103.023V81.2734H117.953C118.422 81.2734 118.859 81.1875 119.266 81.0156C119.672 80.8438 120.023 80.6094 120.32 80.3125C120.633 80 120.875 79.6406 121.047 79.2344C121.219 78.8281 121.305 78.3906 121.305 77.9219C121.305 77.4531 121.219 77.0156 121.047 76.6094C120.875 76.2031 120.633 75.8516 120.32 75.5547C120.023 75.2422 119.672 75 119.266 74.8281C118.859 74.6562 118.422 74.5703 117.953 74.5703H111.227C109.836 74.5703 108.531 74.3047 107.312 73.7734C106.094 73.2422 105.023 72.5234 104.102 71.6172C103.195 70.6953 102.477 69.625 101.945 68.4062C101.414 67.1719 101.148 65.8594 101.148 64.4688ZM143.945 88C142.398 88 140.945 87.7109 139.586 87.1328C138.227 86.5391 137.031 85.7344 136 84.7188C134.984 83.6875 134.18 82.4922 133.586 81.1328C133.008 79.7734 132.719 78.3203 132.719 76.7734V69.3203H129.602V62.9453H132.719V52.9141H139.094V62.9453H148.797V69.3203H139.094V76.7734C139.094 77.4453 139.219 78.0781 139.469 78.6719C139.719 79.25 140.062 79.7578 140.5 80.1953C140.938 80.6328 141.453 80.9844 142.047 81.25C142.641 81.5 143.273 81.625 143.945 81.625H148.797V88H143.945ZM176.664 75.2266C176.664 77.1016 176.328 78.8516 175.656 80.4766C174.984 82.0859 174.07 83.4844 172.914 84.6719C171.758 85.8438 170.398 86.7734 168.836 87.4609C167.289 88.1328 165.625 88.4688 163.844 88.4688C162.078 88.4688 160.414 88.1328 158.852 87.4609C157.305 86.7734 155.945 85.8438 154.773 84.6719C153.617 83.4844 152.703 82.0859 152.031 80.4766C151.359 78.8516 151.023 77.1016 151.023 75.2266C151.023 73.3203 151.359 71.5547 152.031 69.9297C152.703 68.3047 153.617 66.9062 154.773 65.7344C155.945 64.5469 157.305 63.6172 158.852 62.9453C160.414 62.2734 162.078 61.9375 163.844 61.9375C165.625 61.9375 167.289 62.2578 168.836 62.8984C170.398 63.5234 171.758 64.4219 172.914 65.5938C174.07 66.75 174.984 68.1484 175.656 69.7891C176.328 71.4141 176.664 73.2266 176.664 75.2266ZM170.219 75.2266C170.219 74.1953 170.047 73.2656 169.703 72.4375C169.375 71.5938 168.922 70.875 168.344 70.2812C167.766 69.6719 167.086 69.2109 166.305 68.8984C165.539 68.5703 164.719 68.4062 163.844 68.4062C162.969 68.4062 162.141 68.5703 161.359 68.8984C160.594 69.2109 159.922 69.6719 159.344 70.2812C158.781 70.875 158.336 71.5938 158.008 72.4375C157.68 73.2656 157.516 74.1953 157.516 75.2266C157.516 76.1953 157.68 77.0938 158.008 77.9219C158.336 78.75 158.781 79.4688 159.344 80.0781C159.922 80.6875 160.594 81.1719 161.359 81.5312C162.141 81.875 162.969 82.0469 163.844 82.0469C164.719 82.0469 165.539 81.8828 166.305 81.5547C167.086 81.2266 167.766 80.7656 168.344 80.1719C168.922 79.5781 169.375 78.8594 169.703 78.0156C170.047 77.1719 170.219 76.2422 170.219 75.2266ZM186.602 88H180.203V62.8984H181.75L183.859 65.875C184.891 64.9375 186.062 64.2188 187.375 63.7188C188.688 63.2031 190.047 62.9453 191.453 62.9453H197.102V69.3203H191.453C190.781 69.3203 190.148 69.4453 189.555 69.6953C188.961 69.9453 188.445 70.2891 188.008 70.7266C187.57 71.1641 187.227 71.6797 186.977 72.2734C186.727 72.8672 186.602 73.5 186.602 74.1719V88ZM209.594 81.8594C209.844 81.9375 210.094 81.9922 210.344 82.0234C210.594 82.0391 210.844 82.0469 211.094 82.0469C211.719 82.0469 212.32 81.9609 212.898 81.7891C213.477 81.6172 214.016 81.375 214.516 81.0625C215.031 80.7344 215.484 80.3438 215.875 79.8906C216.281 79.4219 216.609 78.9062 216.859 78.3438L221.547 83.0547C220.953 83.8984 220.266 84.6562 219.484 85.3281C218.719 86 217.883 86.5703 216.977 87.0391C216.086 87.5078 215.141 87.8594 214.141 88.0938C213.156 88.3438 212.141 88.4688 211.094 88.4688C209.328 88.4688 207.664 88.1406 206.102 87.4844C204.555 86.8281 203.195 85.9141 202.023 84.7422C200.867 83.5703 199.953 82.1797 199.281 80.5703C198.609 78.9453 198.273 77.1641 198.273 75.2266C198.273 73.2422 198.609 71.4297 199.281 69.7891C199.953 68.1484 200.867 66.75 202.023 65.5938C203.195 64.4375 204.555 63.5391 206.102 62.8984C207.664 62.2578 209.328 61.9375 211.094 61.9375C212.141 61.9375 213.164 62.0625 214.164 62.3125C215.164 62.5625 216.109 62.9219 217 63.3906C217.906 63.8594 218.75 64.4375 219.531 65.125C220.312 65.7969 221 66.5547 221.594 67.3984L209.594 81.8594ZM212.875 68.6641C212.578 68.5547 212.281 68.4844 211.984 68.4531C211.703 68.4219 211.406 68.4062 211.094 68.4062C210.219 68.4062 209.391 68.5703 208.609 68.8984C207.844 69.2109 207.172 69.6641 206.594 70.2578C206.031 70.8516 205.586 71.5703 205.258 72.4141C204.93 73.2422 204.766 74.1797 204.766 75.2266C204.766 75.4609 204.773 75.7266 204.789 76.0234C204.82 76.3203 204.859 76.625 204.906 76.9375C204.969 77.2344 205.039 77.5234 205.117 77.8047C205.195 78.0859 205.297 78.3359 205.422 78.5547L212.875 68.6641Z" fill="black"/>
<path d="M94.9445 110.197L87.9601 32.2654C87.7695 30.1372 85.9892 28.507 83.8568 28.507H69.4535V21.9985C69.4535 9.86851 59.6045 0 47.4983 0C35.3928 0 25.5448 9.86851 25.5448 21.9985V28.507H11.1316C8.99925 28.507 7.21895 30.1372 7.02834 32.2654L0.016473 110.504C-0.0867962 111.658 0.298815 112.802 1.07938 113.658C1.85994 114.513 2.96349 115 4.11978 115H90.8692C90.8725 115 90.8769 115 90.8802 115C93.156 115 95 113.152 95 110.872C94.9995 110.643 94.9808 110.417 94.9445 110.197ZM33.7844 21.9985C33.7844 14.4205 39.9366 8.25541 47.4989 8.25541C55.0617 8.25541 61.2145 14.4205 61.2145 21.9985V28.507H33.7844V21.9985ZM8.62627 106.745L14.8982 36.7624H25.5448V44.1439C25.5448 46.4234 27.3889 48.2716 29.6646 48.2716C31.9404 48.2716 33.7844 46.4234 33.7844 44.1439V36.7624H61.2145V44.1439C61.2145 46.4234 63.0585 48.2716 65.3343 48.2716C67.61 48.2716 69.454 46.4234 69.454 44.1439V36.7624H80.0908L86.3627 106.745H8.62627V106.745Z" fill="black"/>
<path d="M36 82H32.4023L25.9219 70.9375V82H22.5586V65.1953H26.1562L32.6367 76.2695V65.1953H36V82ZM43.5938 78.9297C43.7188 78.9688 43.8438 78.9961 43.9688 79.0117C44.0938 79.0195 44.2188 79.0234 44.3438 79.0234C44.6562 79.0234 44.957 78.9805 45.2461 78.8945C45.5352 78.8086 45.8047 78.6875 46.0547 78.5312C46.3125 78.3672 46.5391 78.1719 46.7344 77.9453C46.9375 77.7109 47.1016 77.4531 47.2266 77.1719L49.5703 79.5273C49.2734 79.9492 48.9297 80.3281 48.5391 80.6641C48.1562 81 47.7383 81.2852 47.2852 81.5195C46.8398 81.7539 46.3672 81.9297 45.8672 82.0469C45.375 82.1719 44.8672 82.2344 44.3438 82.2344C43.4609 82.2344 42.6289 82.0703 41.8477 81.7422C41.0742 81.4141 40.3945 80.957 39.8086 80.3711C39.2305 79.7852 38.7734 79.0898 38.4375 78.2852C38.1016 77.4727 37.9336 76.582 37.9336 75.6133C37.9336 74.6211 38.1016 73.7148 38.4375 72.8945C38.7734 72.0742 39.2305 71.375 39.8086 70.7969C40.3945 70.2188 41.0742 69.7695 41.8477 69.4492C42.6289 69.1289 43.4609 68.9688 44.3438 68.9688C44.8672 68.9688 45.3789 69.0312 45.8789 69.1562C46.3789 69.2812 46.8516 69.4609 47.2969 69.6953C47.75 69.9297 48.1719 70.2188 48.5625 70.5625C48.9531 70.8984 49.2969 71.2773 49.5938 71.6992L43.5938 78.9297ZM45.2344 72.332C45.0859 72.2773 44.9375 72.2422 44.7891 72.2266C44.6484 72.2109 44.5 72.2031 44.3438 72.2031C43.9062 72.2031 43.4922 72.2852 43.1016 72.4492C42.7188 72.6055 42.3828 72.832 42.0938 73.1289C41.8125 73.4258 41.5898 73.7852 41.4258 74.207C41.2617 74.6211 41.1797 75.0898 41.1797 75.6133C41.1797 75.7305 41.1836 75.8633 41.1914 76.0117C41.207 76.1602 41.2266 76.3125 41.25 76.4688C41.2812 76.6172 41.3164 76.7617 41.3555 76.9023C41.3945 77.043 41.4453 77.168 41.5078 77.2773L45.2344 72.332ZM62.6484 82H58.7344L56.2383 78.1562L53.7188 82H49.8047L54.3867 75.5664L49.8047 69.3789H53.7188L56.2383 72.9766L58.7344 69.3789H62.6484L58.0547 75.5664L62.6484 82ZM70.0898 82C69.3164 82 68.5898 81.8555 67.9102 81.5664C67.2305 81.2695 66.6328 80.8672 66.1172 80.3594C65.6094 79.8438 65.207 79.2461 64.9102 78.5664C64.6211 77.8867 64.4766 77.1602 64.4766 76.3867V72.6602H62.918V69.4727H64.4766V64.457H67.6641V69.4727H72.5156V72.6602H67.6641V76.3867C67.6641 76.7227 67.7266 77.0391 67.8516 77.3359C67.9766 77.625 68.1484 77.8789 68.3672 78.0977C68.5859 78.3164 68.8438 78.4922 69.1406 78.625C69.4375 78.75 69.7539 78.8125 70.0898 78.8125H72.5156V82H70.0898Z" fill="black"/>
</svg>
