<svg width="1000" height="252" viewBox="0 0 1000 252" fill="none" xmlns="http://www.w3.org/2000/svg">
<path d="M604.418 117.618C604.418 113.05 605.291 108.764 607.036 104.76C608.78 100.756 611.141 97.2654 614.117 94.2881C617.145 91.2595 620.66 88.8726 624.663 87.1273C628.666 85.382 632.951 84.5094 637.518 84.5094H688.169V106.608H637.518C635.979 106.608 634.542 106.89 633.208 107.455C631.873 108.019 630.693 108.815 629.667 109.842C628.692 110.817 627.922 111.972 627.357 113.307C626.793 114.641 626.511 116.079 626.511 117.618C626.511 119.158 626.793 120.621 627.357 122.007C627.922 123.342 628.692 124.523 629.667 125.549C630.693 126.525 631.873 127.295 633.208 127.859C634.542 128.424 635.979 128.706 637.518 128.706H659.61C664.178 128.706 668.463 129.579 672.466 131.324C676.52 133.018 680.035 135.379 683.011 138.408C686.039 141.385 688.4 144.901 690.093 148.957C691.838 152.96 692.71 157.247 692.71 161.815C692.71 166.384 691.838 170.67 690.093 174.674C688.4 178.678 686.039 182.194 683.011 185.223C680.035 188.2 676.52 190.561 672.466 192.306C668.463 194.052 664.178 194.924 659.61 194.924H610.577V172.826H659.61C661.15 172.826 662.587 172.544 663.921 171.979C665.255 171.414 666.41 170.644 667.385 169.669C668.411 168.642 669.207 167.462 669.771 166.127C670.336 164.792 670.618 163.355 670.618 161.815C670.618 160.275 670.336 158.838 669.771 157.503C669.207 156.169 668.411 155.014 667.385 154.038C666.41 153.012 665.255 152.216 663.921 151.652C662.587 151.087 661.15 150.805 659.61 150.805H637.518C632.951 150.805 628.666 149.932 624.663 148.187C620.66 146.441 617.145 144.08 614.117 141.103C611.141 138.074 608.78 134.558 607.036 130.554C605.291 126.499 604.418 122.187 604.418 117.618Z" fill="black"/>
<path d="M744.977 194.924C739.897 194.924 735.124 193.975 730.66 192.075C726.195 190.125 722.269 187.481 718.882 184.145C715.547 180.757 712.904 176.83 710.954 172.364C709.055 167.898 708.106 163.124 708.106 158.042V133.557H697.868V112.614H708.106V79.6585H729.043V112.614H760.911V133.557H729.043V158.042C729.043 160.25 729.454 162.329 730.275 164.279C731.096 166.178 732.225 167.847 733.662 169.284C735.099 170.721 736.792 171.876 738.742 172.749C740.692 173.57 742.771 173.981 744.977 173.981H760.911V194.924H744.977Z" fill="black"/>
<path d="M852.436 152.96C852.436 159.12 851.333 164.869 849.126 170.208C846.92 175.495 843.918 180.089 840.12 183.991C836.323 187.84 831.858 190.895 826.726 193.153C821.646 195.361 816.18 196.464 810.33 196.464C804.531 196.464 799.066 195.361 793.934 193.153C788.854 190.895 784.389 187.84 780.54 183.991C776.743 180.089 773.741 175.495 771.534 170.208C769.327 164.869 768.224 159.12 768.224 152.96C768.224 146.698 769.327 140.897 771.534 135.559C773.741 130.22 776.743 125.626 780.54 121.776C784.389 117.875 788.854 114.821 793.934 112.614C799.066 110.406 804.531 109.303 810.33 109.303C816.18 109.303 821.646 110.355 826.726 112.46C831.858 114.513 836.323 117.464 840.12 121.314C843.918 125.113 846.92 129.707 849.126 135.097C851.333 140.435 852.436 146.39 852.436 152.96ZM831.268 152.96C831.268 149.573 830.703 146.518 829.574 143.798C828.497 141.026 827.008 138.665 825.11 136.714C823.211 134.712 820.979 133.198 818.413 132.171C815.898 131.093 813.204 130.554 810.33 130.554C807.456 130.554 804.737 131.093 802.171 132.171C799.656 133.198 797.449 134.712 795.551 136.714C793.703 138.665 792.241 141.026 791.163 143.798C790.085 146.518 789.547 149.573 789.547 152.96C789.547 156.143 790.085 159.095 791.163 161.815C792.241 164.536 793.703 166.897 795.551 168.899C797.449 170.901 799.656 172.492 802.171 173.673C804.737 174.802 807.456 175.367 810.33 175.367C813.204 175.367 815.898 174.828 818.413 173.75C820.979 172.672 823.211 171.158 825.11 169.207C827.008 167.256 828.497 164.895 829.574 162.123C830.703 159.351 831.268 156.297 831.268 152.96Z" fill="black"/>
<path d="M885.074 194.924H864.06V112.46H869.14L876.068 122.238C879.455 119.158 883.304 116.797 887.614 115.155C891.925 113.461 896.39 112.614 901.008 112.614H919.56V133.557H901.008C898.802 133.557 896.723 133.968 894.773 134.789C892.823 135.61 891.13 136.74 889.693 138.177C888.256 139.614 887.127 141.308 886.306 143.259C885.485 145.209 885.074 147.288 885.074 149.496V194.924Z" fill="black"/>
<path d="M960.588 174.751C961.409 175.008 962.23 175.187 963.051 175.29C963.872 175.341 964.693 175.367 965.515 175.367C967.567 175.367 969.543 175.085 971.442 174.52C973.34 173.955 975.111 173.16 976.753 172.133C978.447 171.055 979.935 169.772 981.218 168.283C982.552 166.743 983.63 165.049 984.451 163.201L999.846 178.678C997.896 181.45 995.638 183.939 993.072 186.147C990.558 188.354 987.812 190.227 984.836 191.767C981.911 193.307 978.806 194.462 975.521 195.232C972.288 196.054 968.953 196.464 965.515 196.464C959.716 196.464 954.25 195.386 949.119 193.23C944.038 191.074 939.574 188.071 935.725 184.222C931.927 180.372 928.925 175.803 926.718 170.516C924.512 165.177 923.408 159.326 923.408 152.96C923.408 146.441 924.512 140.487 926.718 135.097C928.925 129.707 931.927 125.113 935.725 121.314C939.574 117.516 944.038 114.564 949.119 112.46C954.25 110.355 959.716 109.303 965.515 109.303C968.953 109.303 972.314 109.713 975.598 110.535C978.883 111.356 981.987 112.537 984.913 114.077C987.889 115.617 990.66 117.516 993.226 119.774C995.792 121.982 998.05 124.471 1000 127.243L960.588 174.751ZM971.365 131.401C970.39 131.042 969.415 130.811 968.44 130.708C967.516 130.605 966.541 130.554 965.515 130.554C962.641 130.554 959.921 131.093 957.355 132.171C954.84 133.198 952.634 134.686 950.735 136.637C948.888 138.588 947.425 140.949 946.347 143.721C945.27 146.441 944.731 149.521 944.731 152.96C944.731 153.73 944.757 154.603 944.808 155.578C944.911 156.554 945.039 157.555 945.193 158.581C945.398 159.557 945.629 160.506 945.886 161.43C946.142 162.354 946.476 163.176 946.886 163.894L971.365 131.401Z" fill="black"/>
<path d="M576.44 241.349L561.147 70.6665C560.73 66.0053 556.832 62.4349 552.163 62.4349H520.626V48.1801C520.626 21.6136 499.061 0 472.554 0C446.049 0 424.486 21.6136 424.486 48.1801V62.4349H392.928C388.259 62.4349 384.361 66.0053 383.943 70.6665L368.59 242.021C368.364 244.549 369.209 247.055 370.918 248.929C372.627 250.802 375.043 251.868 377.575 251.868H567.517C567.524 251.868 567.534 251.868 567.541 251.868C572.524 251.868 576.562 247.821 576.562 242.828C576.56 242.325 576.519 241.83 576.44 241.349ZM442.527 48.1801C442.527 31.5833 455.998 18.0807 472.555 18.0807C489.115 18.0807 502.586 31.5833 502.586 48.1801V62.4349H442.527V48.1801ZM387.442 233.789L401.175 80.5156H424.486V96.6821C424.486 101.675 428.524 105.722 433.506 105.722C438.489 105.722 442.527 101.675 442.527 96.6821V80.5156H502.586V96.6821C502.586 101.675 506.624 105.722 511.607 105.722C516.59 105.722 520.627 101.675 520.627 96.6821V80.5156H543.917L557.65 233.789H387.442Z" fill="black"/>
<path d="M88.2919 194.924H64.6601L22.0922 122.238V194.924H0V84.5094H23.6317L66.1997 157.272V84.5094H88.2919V194.924Z" fill="black"/>
<path d="M138.173 174.751C138.994 175.008 139.815 175.187 140.636 175.29C141.457 175.341 142.278 175.367 143.099 175.367C145.152 175.367 147.127 175.085 149.026 174.52C150.925 173.955 152.695 173.16 154.338 172.133C156.031 171.055 157.519 169.772 158.802 168.283C160.136 166.743 161.214 165.049 162.035 163.201L177.431 178.678C175.48 181.45 173.222 183.939 170.657 186.147C168.142 188.354 165.397 190.227 162.42 191.767C159.495 193.307 156.39 194.462 153.106 195.232C149.873 196.054 146.537 196.464 143.099 196.464C137.3 196.464 131.835 195.386 126.703 193.23C121.623 191.074 117.158 188.071 113.309 184.222C109.512 180.372 106.51 175.803 104.303 170.516C102.096 165.177 100.993 159.326 100.993 152.96C100.993 146.441 102.096 140.487 104.303 135.097C106.51 129.707 109.512 125.113 113.309 121.314C117.158 117.516 121.623 114.564 126.703 112.46C131.835 110.355 137.3 109.303 143.099 109.303C146.537 109.303 149.899 109.713 153.183 110.535C156.467 111.356 159.572 112.537 162.497 114.077C165.474 115.617 168.245 117.516 170.811 119.774C173.376 121.982 175.634 124.471 177.584 127.243L138.173 174.751ZM148.949 131.401C147.974 131.042 146.999 130.811 146.024 130.708C145.1 130.605 144.125 130.554 143.099 130.554C140.225 130.554 137.505 131.093 134.94 132.171C132.425 133.198 130.218 134.686 128.32 136.637C126.472 138.588 125.01 140.949 123.932 143.721C122.854 146.441 122.315 149.521 122.315 152.96C122.315 153.73 122.341 154.603 122.392 155.578C122.495 156.554 122.623 157.555 122.777 158.581C122.983 159.557 123.214 160.506 123.47 161.43C123.727 162.354 124.06 163.176 124.471 163.894L148.949 131.401Z" fill="black"/>
<path d="M263.336 194.924H237.626L221.23 169.669L204.68 194.924H178.97L209.068 152.652L178.97 111.998H204.68L221.23 135.636L237.626 111.998H263.336L233.161 152.652L263.336 194.924Z" fill="black"/>
<path d="M312.216 194.924C307.136 194.924 302.363 193.975 297.899 192.075C293.434 190.125 289.508 187.481 286.121 184.145C282.786 180.757 280.143 176.83 278.193 172.364C276.294 167.898 275.344 163.124 275.344 158.042V133.557H265.107V112.614H275.344V79.6585H296.282V112.614H328.15V133.557H296.282V158.042C296.282 160.25 296.693 162.329 297.514 164.279C298.335 166.178 299.464 167.847 300.901 169.284C302.338 170.721 304.031 171.876 305.981 172.749C307.931 173.57 310.009 173.981 312.216 173.981H328.15V194.924H312.216Z" fill="black"/>
</svg>
