<svg xmlns="http://www.w3.org/2000/svg" xlink="http://www.w3.org/1999/xlink" width="0" height="0" style="display:none;"><symbol viewBox="0 0 24 24" id="shopping-cart-2-line"><path fill="none" d="M0 0h24v24H0z"/><path d="M4 6.414L.757 3.172l1.415-1.415L5.414 5h15.242a1 1 0 0 1 .958 1.287l-2.4 8a1 1 0 0 1-.958.713H6v2h11v2H5a1 1 0 0 1-1-1V6.414zM6 7v6h11.512l1.8-6H6zm-.5 16a1.5 1.5 0 1 1 0-3 1.5 1.5 0 0 1 0 3zm12 0a1.5 1.5 0 1 1 0-3 1.5 1.5 0 0 1 0 3z"/></symbol><symbol viewBox="0 0 24 24" id="shopping-bag-line"><path fill="none" d="M0 0h24v24H0z"/><path d="M7 8V6a5 5 0 1 1 10 0v2h3a1 1 0 0 1 1 1v12a1 1 0 0 1-1 1H4a1 1 0 0 1-1-1V9a1 1 0 0 1 1-1h3zm0 2H5v10h14V10h-2v2h-2v-2H9v2H7v-2zm2-2h6V6a3 3 0 0 0-6 0v2z"/></symbol><symbol viewBox="0 0 24 24" id="shopping-bag-3-line"><path fill="none" d="M0 0h24v24H0z"/><path d="M6.5 2h11a1 1 0 0 1 .8.4L21 6v15a1 1 0 0 1-1 1H4a1 1 0 0 1-1-1V6l2.7-3.6a1 1 0 0 1 .8-.4zM19 8H5v12h14V8zm-.5-2L17 4H7L5.5 6h13zM9 10v2a3 3 0 0 0 6 0v-2h2v2a5 5 0 0 1-10 0v-2h2z"/></symbol><symbol viewBox="0 0 24 24" id="heart-line"><path fill="none" d="M0 0H24V24H0z"/><path d="M12.001 4.529c2.349-2.109 5.979-2.039 8.242.228 2.262 2.268 2.34 5.88.236 8.236l-8.48 8.492-8.478-8.492c-2.104-2.356-2.025-5.974.236-8.236 2.265-2.264 5.888-2.34 8.244-.228zm6.826 1.641c-1.5-1.502-3.92-1.563-5.49-.153l-1.335 1.198-1.336-1.197c-1.575-1.412-3.99-1.35-5.494.154-1.49 1.49-1.565 3.875-.192 5.451L12 18.654l7.02-7.03c1.374-1.577 1.299-3.959-.193-5.454z"/></symbol><symbol viewBox="0 0 24 24" id="sun-line"><path fill="none" d="M0 0h24v24H0z"/><path d="M12 18a6 6 0 1 1 0-12 6 6 0 0 1 0 12zm0-2a4 4 0 1 0 0-8 4 4 0 0 0 0 8zM11 1h2v3h-2V1zm0 19h2v3h-2v-3zM3.515 4.929l1.414-1.414L7.05 5.636 5.636 7.05 3.515 4.93zM16.95 18.364l1.414-1.414 2.121 2.121-1.414 1.414-2.121-2.121zm2.121-14.85l1.414 1.415-2.121 2.121-1.414-1.414 2.121-2.121zM5.636 16.95l1.414 1.414-2.121 2.121-1.414-1.414 2.121-2.121zM23 11v2h-3v-2h3zM4 11v2H1v-2h3z"/></symbol><symbol viewBox="0 0 24 24" id="moon-line"><path fill="none" d="M0 0h24v24H0z"/><path d="M10 7a7 7 0 0 0 12 4.9v.1c0 5.523-4.477 10-10 10S2 17.523 2 12 6.477 2 12 2h.1A6.979 6.979 0 0 0 10 7zm-6 5a8 8 0 0 0 15.062 3.762A9 9 0 0 1 8.238 4.938 7.999 7.999 0 0 0 4 12z"/></symbol><symbol viewBox="0 0 24 24" id="filter-2-line"><path fill="none" d="M0 0h24v24H0z"/><path d="M14 14v6l-4 2v-8L4 5V3h16v2l-6 9zM6.404 5L12 13.394 17.596 5H6.404z"/></symbol><symbol viewBox="0 0 24 24" id="delete-bin-line"><path fill="none" d="M0 0h24v24H0z"/><path d="M17 6h5v2h-2v13a1 1 0 0 1-1 1H5a1 1 0 0 1-1-1V8H2V6h5V3a1 1 0 0 1 1-1h8a1 1 0 0 1 1 1v3zm1 2H6v12h12V8zm-9 3h2v6H9v-6zm4 0h2v6h-2v-6zM9 4v2h6V4H9z"/></symbol><symbol viewBox="0 0 24 24" id="upload-line"><path fill="none" d="M0 0h24v24H0z"/><path d="M3 19h18v2H3v-2zM13 5.828V17h-2V5.828L4.929 11.9l-1.414-1.414L12 2l8.485 8.485-1.414 1.414L13 5.83z"/></symbol><symbol viewBox="0 0 24 24" id="check-line"><path fill="none" d="M0 0h24v24H0z"/><path d="M10 15.172l9.192-9.193 1.415 1.414L10 18l-6.364-6.364 1.414-1.414z"/></symbol><symbol viewBox="0 0 24 24" id="add-line"><path fill="none" d="M0 0h24v24H0z"/><path d="M11 11V5h2v6h6v2h-6v6h-2v-6H5v-2z"/></symbol><symbol viewBox="0 0 24 24" id="close-line"><path fill="none" d="M0 0h24v24H0z"/><path d="M12 10.586l4.95-4.95 1.414 1.414-4.95 4.95 4.95 4.95-1.414 1.414-4.95-4.95-4.95 4.95-1.414-1.414 4.95-4.95-4.95-4.95L7.05 5.636z"/></symbol><symbol viewBox="0 0 24 24" id="subtract-line"><path fill="none" d="M0 0h24v24H0z"/><path d="M5 11h14v2H5z"/></symbol><symbol viewBox="0 0 24 24" id="arrow-right-line"><path fill="none" d="M0 0h24v24H0z"/><path d="M16.172 11l-5.364-5.364 1.414-1.414L20 12l-7.778 7.778-1.414-1.414L16.172 13H4v-2z"/></symbol><symbol viewBox="0 0 24 24" id="arrow-up-line"><path fill="none" d="M0 0h24v24H0z"/><path d="M13 7.828V20h-2V7.828l-5.364 5.364-1.414-1.414L12 4l7.778 7.778-1.414 1.414L13 7.828z"/></symbol><symbol viewBox="0 0 24 24" id="arrow-left-line"><path fill="none" d="M0 0h24v24H0z"/><path d="M7.828 11H20v2H7.828l5.364 5.364-1.414 1.414L4 12l7.778-7.778 1.414 1.414z"/></symbol><symbol viewBox="0 0 24 24" id="arrow-down-line"><path fill="none" d="M0 0h24v24H0z"/><path d="M13 16.172l5.364-5.364 1.414 1.414L12 20l-7.778-7.778 1.414-1.414L11 16.172V4h2v12.172z"/></symbol><symbol viewBox="0 0 24 24" id="arrow-up-s-line"><path fill="none" d="M0 0h24v24H0z"/><path d="M12 10.828l-4.95 4.95-1.414-1.414L12 8l6.364 6.364-1.414 1.414z"/></symbol><symbol viewBox="0 0 24 24" id="arrow-down-s-line"><path fill="none" d="M0 0h24v24H0z"/><path d="M12 13.172l4.95-4.95 1.414 1.414L12 16 5.636 9.636 7.05 8.222z"/></symbol><symbol viewBox="0 0 24 24" id="arrow-right-s-line"><path fill="none" d="M0 0h24v24H0z"/><path d="M13.172 12l-4.95-4.95 1.414-1.414L16 12l-6.364 6.364-1.414-1.414z"/></symbol><symbol viewBox="0 0 24 24" id="arrow-left-s-line"><path fill="none" d="M0 0h24v24H0z"/><path d="M10.828 12l4.95 4.95-1.414 1.414L8 12l6.364-6.364 1.414 1.414z"/></symbol><symbol viewBox="0 0 24 24" id="user-3-line"><path fill="none" d="M0 0h24v24H0z"/><path d="M20 22h-2v-2a3 3 0 0 0-3-3H9a3 3 0 0 0-3 3v2H4v-2a5 5 0 0 1 5-5h6a5 5 0 0 1 5 5v2zm-8-9a6 6 0 1 1 0-12 6 6 0 0 1 0 12zm0-2a4 4 0 1 0 0-8 4 4 0 0 0 0 8z"/></symbol><symbol viewBox="0 0 24 24" id="map-pin-line"><path fill="none" d="M0 0h24v24H0z"/><path d="M12 20.9l4.95-4.95a7 7 0 1 0-9.9 0L12 20.9zm0 2.828l-6.364-6.364a9 9 0 1 1 12.728 0L12 23.728zM12 13a2 2 0 1 0 0-4 2 2 0 0 0 0 4zm0 2a4 4 0 1 1 0-8 4 4 0 0 1 0 8z"/></symbol><symbol viewBox="0 0 24 24" id="facebook-line"><path fill="none" d="M0 0h24v24H0z"/><path d="M13 9h4.5l-.5 2h-4v9h-2v-9H7V9h4V7.128c0-1.783.186-2.43.534-3.082a3.635 3.635 0 0 1 1.512-1.512C13.698 2.186 14.345 2 16.128 2c.522 0 .98.05 1.372.15V4h-1.372c-1.324 0-1.727.078-2.138.298-.304.162-.53.388-.692.692-.22.411-.298.814-.298 2.138V9z"/></symbol><symbol viewBox="0 0 24 24" id="google-line"><path fill="none" d="M0 0h24v24H0z"/><path d="M12 11h8.533c.044.385.067.78.067 1.184 0 2.734-.98 5.036-2.678 6.6-1.485 1.371-3.518 2.175-5.942 2.175A8.976 8.976 0 0 1 3 11.98 8.976 8.976 0 0 1 11.98 3c2.42 0 4.453.89 6.008 2.339L16.526 6.8C15.368 5.681 13.803 5 12 5a7 7 0 1 0 0 14c3.526 0 6.144-2.608 6.577-6H12v-2z"/></symbol><symbol viewBox="0 0 24 24" id="linkedin-line"><path fill="none" d="M0 0h24v24H0z"/><path d="M12 9.55C12.917 8.613 14.111 8 15.5 8a5.5 5.5 0 0 1 5.5 5.5V21h-2v-7.5a3.5 3.5 0 0 0-7 0V21h-2V8.5h2v1.05zM5 6.5a1.5 1.5 0 1 1 0-3 1.5 1.5 0 0 1 0 3zm-1 2h2V21H4V8.5z"/></symbol><symbol viewBox="0 0 24 24" id="github-fill"><path fill="none" d="M0 0h24v24H0z"/><path d="M12 2C6.475 2 2 6.475 2 12a9.994 9.994 0 0 0 6.838 9.488c.5.087.687-.213.687-.476 0-.237-.013-1.024-.013-1.862-2.512.463-3.162-.612-3.362-1.175-.113-.288-.6-1.175-1.025-1.413-.35-.187-.85-.65-.013-.662.788-.013 1.35.725 1.538 1.025.9 1.512 2.338 1.087 2.912.825.088-.65.35-1.087.638-1.337-2.225-.25-4.55-1.113-4.55-4.938 0-1.088.387-1.987 1.025-2.688-.1-.25-.45-1.275.1-2.65 0 0 .837-.262 2.75 1.026a9.28 9.28 0 0 1 2.5-.338c.85 0 1.7.112 2.5.337 1.912-1.3 2.75-1.024 2.75-1.024.55 1.375.2 2.4.1 2.65.637.7 1.025 1.587 1.025 2.687 0 3.838-2.337 4.688-4.562 4.938.362.312.675.912.675 1.85 0 1.337-.013 2.412-.013 2.75 0 .262.188.574.688.474A10.016 10.016 0 0 0 22 12c0-5.525-4.475-10-10-10z"/></symbol><symbol viewBox="0 0 24 24" id="twitter-fill"><path fill="none" d="M0 0h24v24H0z"/><path d="M22.162 5.656a8.384 8.384 0 0 1-2.402.658A4.196 4.196 0 0 0 21.6 4c-.82.488-1.719.83-2.656 1.015a4.182 4.182 0 0 0-7.126 3.814 11.874 11.874 0 0 1-8.62-4.37 4.168 4.168 0 0 0-.566 2.103c0 1.45.738 2.731 1.86 3.481a4.168 4.168 0 0 1-1.894-.523v.052a4.185 4.185 0 0 0 3.355 4.101 4.21 4.21 0 0 1-1.89.072A4.185 4.185 0 0 0 7.97 16.65a8.394 8.394 0 0 1-6.191 1.732 11.83 11.83 0 0 0 6.41 1.88c7.693 0 11.9-6.373 11.9-11.9 0-.18-.005-.362-.013-.54a8.496 8.496 0 0 0 2.087-2.165z"/></symbol><symbol viewBox="0 0 24 24" id="phone-line"><path fill="none" d="M0 0h24v24H0z"/><path d="M9.366 10.682a10.556 10.556 0 0 0 3.952 3.952l.884-1.238a1 1 0 0 1 1.294-.296 11.422 11.422 0 0 0 4.583 1.364 1 1 0 0 1 .921.997v4.462a1 1 0 0 1-.898.995c-.53.055-1.064.082-1.602.082C9.94 21 3 14.06 3 5.5c0-.538.027-1.072.082-1.602A1 1 0 0 1 4.077 3h4.462a1 1 0 0 1 .997.921A11.422 11.422 0 0 0 10.9 8.504a1 1 0 0 1-.296 1.294l-1.238.884zm-2.522-.657l1.9-1.357A13.41 13.41 0 0 1 7.647 5H5.01c-.006.166-.009.333-.009.5C5 12.956 11.044 19 18.5 19c.167 0 .334-.003.5-.01v-2.637a13.41 13.41 0 0 1-3.668-1.097l-1.357 1.9a12.442 12.442 0 0 1-1.588-.75l-.058-.033a12.556 12.556 0 0 1-4.702-4.702l-.033-.058a12.442 12.442 0 0 1-.75-1.588z"/></symbol><symbol viewBox="0 0 24 24" id="mail-line"><path fill="none" d="M0 0h24v24H0z"/><path d="M3 3h18a1 1 0 0 1 1 1v16a1 1 0 0 1-1 1H3a1 1 0 0 1-1-1V4a1 1 0 0 1 1-1zm17 4.238l-7.928 7.1L4 7.216V19h16V7.238zM4.511 5l7.55 6.662L19.502 5H4.511z"/></symbol><symbol viewBox="0 0 24 24" id="search-line"><path fill="none" d="M0 0h24v24H0z"/><path d="M18.031 16.617l4.283 4.282-1.415 1.415-4.282-4.283A8.96 8.96 0 0 1 11 20c-4.968 0-9-4.032-9-9s4.032-9 9-9 9 4.032 9 9a8.96 8.96 0 0 1-1.969 5.617zm-2.006-.742A6.977 6.977 0 0 0 18 11c0-3.868-3.133-7-7-7-3.868 0-7 3.132-7 7 0 3.867 3.132 7 7 7a6.977 6.977 0 0 0 4.875-1.975l.15-.15z"/></symbol><symbol viewBox="0 0 24 24" id="apps-fill"><path fill="none" d="M0 0h24v24H0z"/><path d="M6.75 2.5A4.25 4.25 0 0 1 11 6.75V11H6.75a4.25 4.25 0 1 1 0-8.5zm0 10.5H11v4.25A4.25 4.25 0 1 1 6.75 13zm10.5-10.5a4.25 4.25 0 1 1 0 8.5H13V6.75a4.25 4.25 0 0 1 4.25-4.25zM13 13h4.25A4.25 4.25 0 1 1 13 17.25V13z"/></symbol></svg>