<svg enable-background="new 0 0 512 512" viewBox="0 0 512 512" xmlns="http://www.w3.org/2000/svg"><g><path d="m427.495 301.308c-20.443-44.489-49.41-82.276-84.148-109.93l27.02-90.068c.42-1.398.633-2.85.633-4.31 0-21.275-20.706-38.199-50.533-43.361l9.945-34.477c2.296-7.959-2.295-16.273-10.255-18.57-7.957-2.295-16.273 2.295-18.57 10.255l-12.036 41.727c-12.497 1.246-24.058 4.516-33.551 9.494-9.493-4.978-21.054-8.248-33.551-9.495l-12.036-41.727c-2.296-7.96-10.614-12.551-18.57-10.255-7.96 2.296-12.551 10.61-10.255 18.57l9.945 34.477c-29.827 5.163-50.533 22.087-50.533 43.362 0 1.46.213 2.912.633 4.31l27.02 90.068c-34.738 27.654-63.706 65.442-84.148 109.93-21.919 47.702-33.505 101.939-33.505 156.847v1.345c0 6.111 3.707 11.611 9.372 13.904 63.264 25.611 129.083 38.596 195.628 38.596s132.364-12.985 195.628-38.596c5.665-2.293 9.372-7.793 9.372-13.904v-1.345c0-54.908-11.586-109.145-33.505-156.847zm-286.495 158.192v8.555c-20.169-4.942-40.154-11.187-59.892-18.73 2.381-97.158 43.908-187.002 109.869-237.325h5.336c-16.302 26.64-29.829 61.711-39.357 102.209-13.188 56.046-15.956 109.945-15.956 145.291zm100 22.259c-23.473-.733-46.836-3.188-70-7.344v-14.915c0-33.758 2.63-85.175 15.157-138.419 9.757-41.471 23.76-76.319 40.494-100.776l5.682-8.304h8.667zm-43.839-299.759-25.866-86.22c2.217-4.981 16.833-13.78 39.705-13.78 17.246 0 29.802 4.977 35.803 9.634 5.412 4.2 12.982 4.2 18.395 0 6-4.657 18.556-9.634 35.802-9.634 22.872 0 37.488 8.799 39.706 13.78l-25.867 86.22zm143.839 292.415c-23.164 4.157-46.527 6.611-70 7.344v-269.759h8.667l5.682 8.304c34.327 50.17 55.651 141.824 55.651 239.196zm30-6.36v-8.555c0-99.439-20.551-190.834-55.305-247.5h5.328c65.961 50.323 107.488 140.167 109.869 237.326-19.738 7.542-39.723 13.787-59.892 18.729z"/></g></svg>