<?xml version="1.0" encoding="iso-8859-1"?>
<!-- Generator: Adobe Illustrator 19.0.0, SVG Export Plug-In . SVG Version: 6.00 Build 0)  -->
<svg version="1.1" id="Capa_1" xmlns="http://www.w3.org/2000/svg" xmlns:xlink="http://www.w3.org/1999/xlink" x="0px" y="0px"
	 viewBox="0 0 355.2 355.2" style="enable-background:new 0 0 355.2 355.2;" xml:space="preserve">
<g>
	<g>
		<path d="M338,216.4c-1.2-1.6-2.4-2.8-3.6-3.6l-0.4-49.2v-0.4c0-43.2-17.6-82.4-46-110.8C260,24,220.8,6.8,177.6,6.8
			s-82.4,17.6-110.8,46c-28.4,28.4-46,67.6-46,110.8v0.4l0.8,48c-1.6,1.2-3.2,2.8-4.4,4C6.8,226.4,0,241.2,0,257.2
			s6.4,30.8,17.2,41.2c8.4,8.4,19.6,14.4,32,16.4c2,8,6,14.8,11.6,20.4c8,8,18.8,12.8,30.4,12.8c12,0,22.8-4.8,30.4-12.8
			c8-8,12.8-18.8,12.8-30.4V210c0-12-4.8-22.8-12.8-30.4c-8-8-18.8-12.8-30.4-12.8c-12,0-22.8,4.8-30.4,12.8
			c-5.6,5.6-9.6,12.4-11.6,20.4c-2.4,0.4-4.4,0.8-6.8,1.6L42,164v-0.4c0-37.6,15.2-71.2,39.6-96C106,43.2,140,28,177.6,28
			c37.6,0,71.2,15.2,96,39.6c24.4,24.4,39.6,58.4,39.6,96v0.4l0.4,38c-2.4-0.8-4.8-1.2-7.6-1.6c-2-8-6-14.8-11.6-20.4
			c-8-8-18.8-12.8-30.4-12.8c-12,0-22.8,4.8-30.4,12.8c-8,8-12.8,18.8-12.8,30.4v94.8c0,12,4.8,22.8,12.8,30.4
			c8,8,18.8,12.8,30.4,12.8c12,0,22.8-4.8,30.4-12.8c5.6-5.6,9.6-12.4,11.6-20.4c12.4-2,23.6-7.6,32-16.4
			c10.4-10.4,17.2-25.2,17.2-41.2S348.8,226.8,338,216.4z M69.2,257.2V210c0-6,2.4-11.6,6.4-15.6c3.6-4.4,9.2-6.8,15.6-6.8
			c6,0,11.6,2.4,15.6,6.4s6.4,9.6,6.4,15.6v94.8c0,6-2.4,11.6-6.4,15.6s-9.6,6.4-15.6,6.4S79.6,324,75.6,320s-6.4-9.6-6.4-15.6
			V257.2z M48,221.2v36v36c-6-1.6-11.6-5.2-16-9.6c-6.8-6.8-10.8-16-10.8-26.4c0-10.4,4-19.6,10.8-26.4
			C36.4,226.4,42,223.2,48,221.2z M286,257.2v47.2c0,6-2.4,11.6-6.4,15.6c-3.6,4.4-9.2,6.8-15.6,6.8c-6,0-11.6-2.4-15.6-6.4
			s-6.4-9.6-6.4-15.6V210c0-6,2.4-11.6,6.4-15.6S258,188,264,188s11.6,2.4,15.6,6.4S286,204,286,210V257.2z M323.2,283.6
			c-4.4,4.4-10,7.6-16,9.6v-36v-36c6,1.6,11.6,5.2,16,9.6c6.8,6.8,10.8,16,10.8,26.4C334.4,267.6,330,276.8,323.2,283.6z"/>
	</g>
</g>
<g>
</g>
<g>
</g>
<g>
</g>
<g>
</g>
<g>
</g>
<g>
</g>
<g>
</g>
<g>
</g>
<g>
</g>
<g>
</g>
<g>
</g>
<g>
</g>
<g>
</g>
<g>
</g>
<g>
</g>
</svg>
