<?xml version="1.0" encoding="iso-8859-1"?>
<!-- Generator: Adobe Illustrator 19.0.0, SVG Export Plug-In . SVG Version: 6.00 Build 0)  -->
<svg version="1.1" id="Capa_1" xmlns="http://www.w3.org/2000/svg" xmlns:xlink="http://www.w3.org/1999/xlink" x="0px" y="0px"
	 viewBox="0 0 512.001 512.001" style="enable-background:new 0 0 512.001 512.001;" xml:space="preserve">
<g>
	<g>
		<path d="M476.495,96.001h-20.001V88.5c0-15.163-12.337-27.5-27.5-27.5h-25c-15.163,0-27.5,12.336-27.5,27.5v7.501h-19.157V67.937
			c0-17.61-14.327-31.936-31.938-31.936h-140.87c-17.609,0-31.936,14.327-31.936,31.936v28.064h-17.087V88.5
			c0-15.163-12.337-27.5-27.5-27.5h-25c-15.163,0-27.5,12.336-27.5,27.5v7.501h-20C15.928,96.001,0,111.929,0,131.507v308.987
			C0,460.072,15.928,476,35.506,476h440.989c19.578,0,35.506-15.928,35.506-35.507V131.507
			C512.001,111.929,496.073,96.001,476.495,96.001z M396.494,88.5c0-4.135,3.364-7.499,7.5-7.499h25c4.136,0,7.5,3.364,7.5,7.499
			v7.501h-40V88.5z M172.593,67.937c0-6.582,5.354-11.936,11.936-11.936h140.87c6.582,0,11.938,5.354,11.938,11.936v28.064H172.593
			V67.937z M75.506,88.5c0-4.135,3.364-7.499,7.5-7.499h25c4.136,0,7.5,3.364,7.5,7.499v7.501h-40V88.5z M492.001,440.494
			c0,8.551-6.956,15.507-15.506,15.507H35.506C26.956,456,20,449.044,20,440.494V131.507c0-8.55,6.956-15.506,15.506-15.506h440.989
			c8.55,0,15.506,6.956,15.506,15.506V440.494z"/>
	</g>
</g>
<g>
	<g>
		<path d="M356.972,238.135h-53.106v-53.107c0-5.523-4.478-10-10-10h-75.729c-5.523,0-10,4.477-10,10v53.107H155.03
			c-5.522,0-10,4.477-10,10v75.729c0,5.523,4.478,10,10,10h53.107v53.107c0,5.523,4.477,10,10,10h75.729c5.522,0,10-4.477,10-10
			v-53.107h53.106c5.522,0,10-4.477,10-10v-75.729C366.972,242.612,362.494,238.135,356.972,238.135z M346.972,313.864h-53.106
			c-5.522,0-10,4.477-10,10v53.107h-55.729v-53.107c0-5.523-4.478-10-10-10H165.03v-55.729h53.107c5.522,0,10-4.477,10-10v-53.107
			h55.729v53.107c0,5.523,4.478,10,10,10h53.106V313.864z"/>
	</g>
</g>
<g>
	<g>
		<path d="M141,131.001h-0.325c-5.522,0-10,4.477-10,10c0,5.523,4.478,10,10,10H141c5.523,0,10-4.478,10-10
			C151,135.478,146.523,131.001,141,131.001z"/>
	</g>
</g>
<g>
	<g>
		<path d="M110.952,131.001H45c-5.522,0-10,4.477-10,10c0,5.523,4.478,10,10,10h65.952c5.522,0,10-4.477,10-10
			C120.952,135.478,116.475,131.001,110.952,131.001z"/>
	</g>
</g>
<g>
	<g>
		<path d="M467.001,421h-65.952c-5.522,0-10,4.477-10,10s4.478,10,10,10h65.952c5.522,0,10-4.477,10-10S472.523,421,467.001,421z"/>
	</g>
</g>
<g>
	<g>
		<path d="M371.325,421h-0.324c-5.523,0-10,4.477-10,10s4.477,10,10,10h0.324c5.522,0,10-4.477,10-10S376.848,421,371.325,421z"/>
	</g>
</g>
<g>
</g>
<g>
</g>
<g>
</g>
<g>
</g>
<g>
</g>
<g>
</g>
<g>
</g>
<g>
</g>
<g>
</g>
<g>
</g>
<g>
</g>
<g>
</g>
<g>
</g>
<g>
</g>
<g>
</g>
</svg>
